<svg width="12" height="12" viewBox="0 0 12 12" fill="none" xmlns="http://www.w3.org/2000/svg">
<g clip-path="url(#clip0_397_132)">
<path d="M4.97484 9.14629L3.56083 10.5603C2.9746 11.1465 2.02526 11.1465 1.43953 10.5604C0.853686 9.97458 0.853686 9.02514 1.43942 8.43941L4.26794 5.61089C4.85367 5.02513 5.80311 5.02513 6.38884 5.61089C6.58409 5.80615 6.90069 5.80615 7.09595 5.61089C7.29121 5.41563 7.29121 5.09903 7.09595 4.90377C6.11968 3.9275 4.5371 3.9275 3.56083 4.90377L0.732326 7.73227C-0.243946 8.70855 -0.243946 10.2911 0.732326 11.2674C1.70848 12.2442 3.29118 12.2442 4.26796 11.2674L5.68198 9.85338C5.87724 9.65812 5.87724 9.34153 5.68198 9.14627C5.48672 8.95101 5.1701 8.95103 4.97484 9.14629Z" fill="white"/>
<path d="M11.2677 0.732203C10.2914 -0.244068 8.70832 -0.244068 7.73204 0.732203L6.03553 2.42871C5.84028 2.62397 5.84028 2.94057 6.03553 3.13583C6.23079 3.33109 6.54739 3.33109 6.74265 3.13583L8.43916 1.43932C9.02489 0.853564 9.97482 0.853564 10.5606 1.43932C11.1463 2.02505 11.1463 2.97448 10.5606 3.56021L7.44955 6.67125C6.8638 7.25701 5.91439 7.25701 5.32866 6.67125C5.1334 6.47599 4.8168 6.47599 4.62154 6.67125C4.42628 6.86651 4.42628 7.18311 4.62154 7.37837C5.59781 8.35464 7.18039 8.35464 8.15666 7.37837L11.2677 4.26735C12.244 3.29108 12.244 1.70847 11.2677 0.732203Z" fill="white"/>
</g>
<defs>
<clipPath id="clip0_397_132">
<rect width="12" height="12" fill="white"/>
</clipPath>
</defs>
</svg>
