<svg width="78" height="43" viewBox="0 0 78 43" fill="none" xmlns="http://www.w3.org/2000/svg">
<path d="M27.386 19.5657C26.2268 17.3932 24.4616 15.6052 22.3056 14.4197C20.126 13.2143 17.5568 12.6116 14.5978 12.6116C12.3786 12.6116 10.3738 12.9527 8.58354 13.6348C6.84818 14.2812 5.27414 15.2982 3.9708 16.6152C2.66853 17.9502 1.66345 19.5464 1.02175 21.2986C0.339643 23.1114 -0.000942792 25.1679 1.96005e-06 27.4679C1.96005e-06 30.5089 0.603229 33.15 1.80968 35.3914C2.96107 37.5773 4.72747 39.3769 6.89008 40.5673C9.06962 41.7765 11.6389 42.3806 14.5978 42.3797C16.8171 42.3797 18.8218 42.0386 20.6121 41.3564C22.3482 40.7114 23.9225 39.6942 25.2249 38.3761C26.5317 37.0358 27.5372 35.4313 28.1739 33.6699C28.8541 31.8372 29.1947 29.7709 29.1957 27.4708C29.1957 24.4223 28.5924 21.7873 27.386 19.5657ZM20.9338 32.6367C20.3301 34.02 19.4831 35.0608 18.3929 35.759C17.3027 36.4573 16.0376 36.8078 14.5978 36.8107C12.4173 36.8107 10.6658 36.0216 9.34313 34.4434C8.02047 32.8652 7.35915 30.5358 7.35915 27.4552C7.35915 25.3888 7.66099 23.664 8.26469 22.2807C8.86839 20.8974 9.713 19.8652 10.7985 19.184C11.8888 18.5009 13.1538 18.1593 14.5936 18.1593C16.7731 18.1593 18.5252 18.9295 19.8497 20.4698C21.1742 22.0101 21.8356 24.3395 21.8337 27.458C21.8375 29.5244 21.5375 31.2497 20.9338 32.6339V32.6367Z" fill="white"/>
<path d="M61.9567 24.357V38.5137C61.9567 39.7215 61.6393 40.6425 61.0214 41.284C60.4036 41.9255 59.4994 42.2576 58.3289 42.2576C57.1583 42.2576 56.2556 41.9298 55.6193 41.284C54.983 40.6383 54.6486 39.7229 54.6486 38.5137V24.7118C54.6486 22.4851 54.2376 20.8657 53.3959 19.8552C52.5541 18.8448 51.2702 18.3395 49.5186 18.3395C47.3702 18.3395 45.6697 19.0037 44.4084 20.352C43.1472 21.7002 42.5109 23.4856 42.5109 25.7038V38.5137C42.5109 41.003 41.278 42.2576 38.8264 42.2576C37.6587 42.2576 36.7616 41.9298 36.1338 41.284C35.5061 40.6383 35.2 39.7229 35.2 38.5137V16.4023C35.2 15.1959 35.5174 14.2735 36.1338 13.6618C36.7503 13.0501 37.6388 12.7251 38.7697 12.7251C39.9006 12.7251 40.7693 13.0345 41.3942 13.6618C42.0192 14.2891 42.3295 15.1959 42.3295 16.4023V17.6186C43.1291 16.2075 44.2861 15.0326 45.6839 14.2124C47.5006 13.1367 49.555 12.603 51.8469 12.6116C54.1389 12.6201 56.0284 13.0501 57.5154 13.9016C58.9921 14.7532 60.1031 16.0546 60.8414 17.786C61.5798 19.5175 61.9567 21.7087 61.9567 24.357Z" fill="white"/>
<path d="M75.7029 13.8037C75.0596 13.1224 74.1545 12.7813 72.9877 12.7804C71.821 12.7795 70.9234 13.1205 70.2952 13.8037C69.6735 14.4849 69.3622 15.4689 69.3613 16.7556V38.2171C69.3613 39.466 69.6726 40.441 70.2952 41.1421C70.9178 41.8432 71.8153 42.1942 72.9877 42.1951C74.1932 42.1951 75.1077 41.8441 75.7313 41.1421C76.3548 40.44 76.6666 39.465 76.6666 38.2171V16.7556C76.6675 15.4698 76.3463 14.4858 75.7029 13.8037ZM76.1989 1.0761C75.4592 0.413793 74.3888 0.0826416 72.9877 0.0826416C71.6245 0.0826416 70.5635 0.413793 69.8049 1.0761C69.0462 1.7384 68.6683 2.69353 68.6712 3.9415C68.6712 5.15067 69.0491 6.09682 69.8049 6.77994C70.5607 7.46306 71.6216 7.80414 72.9877 7.80319C74.3888 7.80319 75.4592 7.46211 76.1989 6.77994C76.9387 6.09777 77.3085 5.15162 77.3085 3.9415C77.3095 2.69542 76.9401 1.74029 76.2004 1.0761H76.1989Z" fill="white"/>
</svg>
