<svg width="24" height="24" viewBox="0 0 24 24" fill="none" xmlns="http://www.w3.org/2000/svg">
<path d="M12 22C17.5228 22 22 17.5228 22 12C22 6.47715 17.5228 2 12 2C6.47715 2 2 6.47715 2 12C2 17.5228 6.47715 22 12 22Z" fill="#E60023"/>
<path d="M12.222 5.70807C7.90579 5.70807 5.61426 8.60538 5.61426 11.7596C5.61426 13.2265 6.39502 15.0523 7.64426 15.6338C7.83347 15.7219 7.93503 15.6838 7.97849 15.5004C8.01193 15.3611 8.18039 14.6819 8.25616 14.3661C8.2804 14.2654 8.26849 14.1788 8.18695 14.0796C7.77347 13.5781 7.44272 12.6565 7.44272 11.7973C7.44272 9.59152 9.1127 7.45731 11.9577 7.45731C14.4142 7.45731 16.1342 9.13153 16.1342 11.5258C16.1342 14.2307 14.7681 16.105 12.9908 16.105C12.0092 16.105 11.2743 15.2931 11.51 14.2973C11.7927 13.1088 12.3385 11.8265 12.3385 10.9681C12.3385 10.2004 11.9269 9.5596 11.0735 9.5596C10.07 9.5596 9.26425 10.5973 9.26425 11.9881C9.26425 12.8731 9.56348 13.4723 9.56348 13.4723C9.56348 13.4723 8.57233 17.6631 8.39078 18.4431C8.18979 19.3042 8.26813 20.5139 8.3551 21.3047C8.58066 21.3932 8.8063 21.4816 9.03949 21.5538C9.44794 20.8899 10.057 19.801 10.2827 18.9327C10.4046 18.4646 10.9062 16.5554 10.9062 16.5554C11.2319 17.1773 12.1842 17.7038 13.1977 17.7038C16.2135 17.7038 18.3869 14.9304 18.3869 11.4838C18.3869 8.1796 15.6912 5.70807 12.222 5.70807Z" fill="white"/>
</svg>
