<svg width="24" height="24" viewBox="0 0 24 24" fill="none" xmlns="http://www.w3.org/2000/svg">
<path d="M6.09648 9.77749C5.12648 8.90699 3.70148 8.91399 2.91398 9.79199C2.12598 10.67 2.26348 12.3035 3.37698 13.108L6.09648 9.77749ZM17.9035 9.77749C18.873 8.90699 20.298 8.91399 21.086 9.79199C21.8735 10.67 21.737 12.3035 20.6225 13.108L17.9035 9.77749ZM19.16 3.48749C18.9302 3.48749 18.7026 3.53275 18.4903 3.6207C18.278 3.70864 18.085 3.83755 17.9225 4.00005C17.76 4.16255 17.6311 4.35547 17.5432 4.56779C17.4552 4.78011 17.41 5.00767 17.41 5.23749C17.41 5.4673 17.4552 5.69486 17.5432 5.90718C17.6311 6.1195 17.76 6.31242 17.9225 6.47493C18.085 6.63743 18.278 6.76633 18.4903 6.85428C18.7026 6.94222 18.9302 6.98749 19.16 6.98749C19.3898 6.98749 19.6174 6.94222 19.8297 6.85428C20.042 6.76633 20.2349 6.63743 20.3974 6.47493C20.5599 6.31242 20.6888 6.1195 20.7768 5.90718C20.8647 5.69486 20.91 5.4673 20.91 5.23749C20.91 5.00767 20.8647 4.78011 20.7768 4.56779C20.6888 4.35547 20.5599 4.16255 20.3974 4.00005C20.2349 3.83755 20.042 3.70864 19.8297 3.6207C19.6174 3.53275 19.3898 3.48749 19.16 3.48749Z" fill="white"/>
<path d="M12.0425 7.83252C10.855 7.83252 9.67917 7.99995 8.58208 8.32525C7.485 8.65055 6.48816 9.12734 5.64849 9.72842C4.80881 10.3295 4.14275 11.0431 3.68832 11.8284C3.23389 12.6138 3 13.4555 3 14.3055C3 15.1556 3.23389 15.9973 3.68832 16.7826C4.14275 17.568 4.80881 18.2815 5.64849 18.8826C6.48816 19.4837 7.485 19.9605 8.58208 20.2858C9.67917 20.6111 10.855 20.7785 12.0425 20.7785C13.23 20.7785 14.4058 20.6111 15.5029 20.2858C16.6 19.9605 17.5968 19.4837 18.4365 18.8826C19.2762 18.2815 19.9423 17.568 20.3967 16.7826C20.8511 15.9973 21.085 15.1556 21.085 14.3055C21.085 13.4555 20.8511 12.6138 20.3967 11.8284C19.9423 11.0431 19.2762 10.3295 18.4365 9.72842C17.5968 9.12734 16.6 8.65055 15.5029 8.32525C14.4058 7.99995 13.23 7.83252 12.0425 7.83252Z" fill="white"/>
<path d="M15.1825 11.753C14.8 11.753 14.4333 11.9049 14.1628 12.1753C13.8924 12.4458 13.7405 12.8125 13.7405 13.195C13.7405 13.5774 13.8924 13.9442 14.1628 14.2146C14.4333 14.4851 14.8 14.637 15.1825 14.637C15.5649 14.637 15.9317 14.4851 16.2021 14.2146C16.4726 13.9442 16.6245 13.5774 16.6245 13.195C16.6245 12.8125 16.4726 12.4458 16.2021 12.1753C15.9317 11.9049 15.5649 11.753 15.1825 11.753ZM8.81749 11.753C8.43505 11.753 8.06827 11.9049 7.79784 12.1753C7.52741 12.4458 7.37549 12.8125 7.37549 13.195C7.37549 13.5774 7.52741 13.9442 7.79784 14.2146C8.06827 14.4851 8.43505 14.637 8.81749 14.637C9.19993 14.637 9.56671 14.4851 9.83714 14.2146C10.1076 13.9442 10.2595 13.5774 10.2595 13.195C10.2595 12.8125 10.1076 12.4458 9.83714 12.1753C9.56671 11.9049 9.19993 11.753 8.81749 11.753Z" fill="#D84315"/>
<path d="M12.001 17.451C10.375 17.451 8.93099 17.0785 7.99999 16.5C8.51199 17.522 10.098 18.5 12.001 18.5C13.902 18.5 15.489 17.522 16 16.5C15.0715 17.0785 13.627 17.451 12.001 17.451ZM20.915 13.513L20.33 12.7025C20.7455 12.4025 21.0165 11.9245 21.074 11.391C21.1265 10.901 20.9955 10.4395 20.7135 10.1255C20.428 9.807 20.018 9.6305 19.56 9.6285C19.0965 9.635 18.613 9.811 18.237 10.149L17.569 9.405C18.1305 8.901 18.8415 8.6435 19.5645 8.6285C20.3085 8.632 20.981 8.9265 21.4575 9.4575C21.9285 9.9825 22.151 10.726 22.068 11.498C21.9805 12.313 21.5605 13.048 20.915 13.513ZM3.08449 13.513C2.43949 13.047 2.01899 12.3125 1.93149 11.4975C1.84849 10.726 2.07099 9.9825 2.54199 9.458C3.01849 8.927 3.69049 8.6325 4.43449 8.629C4.43899 8.629 4.44349 8.629 4.44799 8.629C5.16849 8.629 5.87249 8.9045 6.43049 9.4055L5.76249 10.1495C5.38599 9.8115 4.91799 9.647 4.43949 9.629C3.98149 9.631 3.57199 9.8075 3.28649 10.126C3.00499 10.44 2.87349 10.901 2.92599 11.391C2.98349 11.9245 3.25449 12.4025 3.66999 12.703L3.08449 13.513ZM12.5 8.42H11.5C11.5 6.9775 11.5 3.146 13.9895 3.146C15.0665 3.146 15.586 3.7515 15.9655 4.194C16.28 4.561 16.446 4.737 16.7735 4.737H17.4585V5.737H16.7735C15.9715 5.737 15.547 5.242 15.206 4.8445C14.871 4.454 14.607 4.1455 13.989 4.1455C12.9875 4.146 12.5 5.544 12.5 8.42Z" fill="#37474F"/>
<path d="M12.0425 8.47499C16.753 8.47499 20.585 11.0905 20.585 14.3055C20.585 17.521 16.753 20.1365 12.0425 20.1365C7.332 20.1365 3.5 17.521 3.5 14.3055C3.5 11.0905 7.332 8.47499 12.0425 8.47499ZM12.0425 7.47499C6.772 7.47499 2.5 10.533 2.5 14.3055C2.5 18.0785 6.7725 21.1365 12.0425 21.1365C17.3125 21.1365 21.585 18.0785 21.585 14.3055C21.585 10.533 17.3125 7.47499 12.0425 7.47499ZM19.16 3.98749C19.8495 3.98749 20.41 4.54849 20.41 5.23749C20.41 5.92649 19.8495 6.48749 19.16 6.48749C18.4705 6.48749 17.91 5.92649 17.91 5.23749C17.91 4.54849 18.4705 3.98749 19.16 3.98749ZM19.16 2.98749C17.918 2.98749 16.91 3.99499 16.91 5.23749C16.91 6.47999 17.918 7.48749 19.16 7.48749C20.403 7.48749 21.41 6.47999 21.41 5.23749C21.41 3.99499 20.4035 2.98749 19.16 2.98749Z" fill="#37474F"/>
</svg>
