<svg width="19" height="14" viewBox="0 0 19 14" fill="none" xmlns="http://www.w3.org/2000/svg">
<path d="M13.6667 4.66666L18.0109 1.62499C18.0733 1.58121 18.1466 1.55541 18.2227 1.55041C18.2989 1.54542 18.3749 1.56141 18.4426 1.59666C18.5102 1.6319 18.5669 1.68504 18.6064 1.75029C18.6459 1.81553 18.6668 1.89038 18.6667 1.96666V12.0333C18.6668 12.1096 18.6459 12.1845 18.6064 12.2497C18.5669 12.3149 18.5102 12.3681 18.4426 12.4033C18.3749 12.4386 18.2989 12.4546 18.2227 12.4496C18.1466 12.4446 18.0733 12.4188 18.0109 12.375L13.6667 9.33333V12.8333C13.6667 13.0543 13.5789 13.2663 13.4226 13.4226C13.2663 13.5789 13.0544 13.6667 12.8334 13.6667H1.16671C0.945694 13.6667 0.733732 13.5789 0.577452 13.4226C0.421171 13.2663 0.333374 13.0543 0.333374 12.8333V1.16666C0.333374 0.945648 0.421171 0.733686 0.577452 0.577406C0.733732 0.421126 0.945694 0.333328 1.16671 0.333328H12.8334C13.0544 0.333328 13.2663 0.421126 13.4226 0.577406C13.5789 0.733686 13.6667 0.945648 13.6667 1.16666V4.66666ZM3.66671 3.66666V5.33333H5.33337V3.66666H3.66671Z" fill="white"/>
</svg>
