<svg width="18" height="16" viewBox="0 0 18 16" fill="none" xmlns="http://www.w3.org/2000/svg">
<path d="M9.00092 1.77415C10.9584 0.0166499 13.9834 0.0749834 15.8693 1.96415C17.7543 3.85415 17.8193 6.86415 16.0659 8.82748L8.99925 15.9042L1.93425 8.82748C0.18092 6.86415 0.246753 3.84915 2.13092 1.96415C4.01842 0.0774834 7.03759 0.0141499 9.00092 1.77415ZM14.6893 3.14165C13.4393 1.88998 11.4226 1.83915 10.1143 3.01415L9.00175 4.01248L7.88842 3.01498C6.57592 1.83832 4.56342 1.88998 3.31009 3.14332C2.06842 4.38498 2.00592 6.37248 3.15009 7.68582L9.00009 13.545L14.8501 7.68665C15.9951 6.37248 15.9326 4.38748 14.6893 3.14165Z" fill="white"/>
</svg>
