<svg width="11" height="14" viewBox="0 0 11 14" fill="none" xmlns="http://www.w3.org/2000/svg">
<path d="M10.1467 7.34664L1.31425 13.235C1.2515 13.2767 1.17861 13.3007 1.10332 13.3043C1.02804 13.3079 0.953192 13.291 0.886747 13.2554C0.820302 13.2199 0.764751 13.1669 0.726009 13.1023C0.687268 13.0376 0.666787 12.9637 0.666748 12.8883V1.11164C0.666787 1.03627 0.687268 0.962327 0.726009 0.897678C0.764751 0.833029 0.820302 0.780099 0.886747 0.744525C0.953192 0.708951 1.02804 0.692065 1.10332 0.695666C1.17861 0.699268 1.2515 0.723221 1.31425 0.764976L10.1467 6.65331C10.2038 6.69136 10.2506 6.74291 10.283 6.80338C10.3153 6.86386 10.3323 6.93139 10.3323 6.99997C10.3323 7.06856 10.3153 7.13609 10.283 7.19657C10.2506 7.25704 10.2038 7.30859 10.1467 7.34664Z" fill="white"/>
</svg>
