<svg width="24" height="24" viewBox="0 0 24 24" fill="none" xmlns="http://www.w3.org/2000/svg">
<path fill-rule="evenodd" clip-rule="evenodd" d="M2.43402 21.6515L3.78102 16.734C2.95002 15.295 2.51302 13.662 2.51352 11.9895C2.51602 6.757 6.77402 2.5 12.007 2.5C14.5465 2.501 16.9295 3.4895 18.722 5.283C20.514 7.077 21.501 9.461 21.5 11.997C21.498 17.2295 17.239 21.487 12.007 21.487C12.0065 21.487 12.007 21.487 12.007 21.487H12.003C10.4145 21.4865 8.85302 21.088 7.46652 20.3315L2.43402 21.6515Z" fill="white"/>
<path fill-rule="evenodd" clip-rule="evenodd" d="M2.43399 21.9015C2.36799 21.9015 2.30399 21.8755 2.25649 21.8275C2.19399 21.764 2.16949 21.6715 2.19299 21.586L3.51249 16.768C2.69449 15.315 2.26299 13.665 2.26399 11.99C2.26599 6.619 6.63649 2.25 12.007 2.25C14.612 2.251 17.0595 3.2655 18.899 5.1065C20.7385 6.948 21.751 9.395 21.75 11.997C21.748 17.3675 17.377 21.737 12.007 21.737C10.4125 21.7365 8.83498 21.343 7.43499 20.5985L2.49749 21.893C2.47649 21.899 2.45549 21.9015 2.43399 21.9015Z" fill="white"/>
<path fill-rule="evenodd" clip-rule="evenodd" d="M12.007 2.5C14.5465 2.501 16.9295 3.4895 18.722 5.283C20.514 7.077 21.501 9.461 21.5 11.997C21.498 17.2295 17.239 21.487 12.007 21.487H12.003C10.4145 21.4865 8.85298 21.088 7.46648 20.3315L2.43398 21.6515L3.78098 16.734C2.94998 15.295 2.51298 13.662 2.51348 11.9895C2.51598 6.757 6.77398 2.5 12.007 2.5ZM12.007 2C6.49898 2 2.01598 6.481 2.01348 11.9895C2.01298 13.673 2.43798 15.332 3.24398 16.8005L1.95148 21.52C1.90448 21.6925 1.95248 21.8765 2.07848 22.0035C2.17348 22.0995 2.30198 22.152 2.43398 22.152C2.47648 22.152 2.51898 22.1465 2.56098 22.1355L7.40448 20.8655C8.81848 21.5995 10.4035 21.987 12.003 21.9875C17.515 21.9875 21.998 17.506 22.0005 11.9975C22.0015 9.328 20.963 6.818 19.0765 4.93C17.189 3.0415 14.6785 2.001 12.007 2Z" fill="#CFD8DC"/>
<path fill-rule="evenodd" clip-rule="evenodd" d="M17.588 6.41603C16.098 4.92503 14.1175 4.10353 12.0095 4.10303C7.65753 4.10303 4.11803 7.64103 4.11603 11.99C4.11553 13.4805 4.53253 14.9315 5.32253 16.188L5.51053 16.4865L4.71303 19.397L7.69953 18.614L7.98803 18.785C9.19903 19.504 10.588 19.884 12.004 19.8845H12.007C16.356 19.8845 19.8955 16.346 19.897 11.9965C19.8975 9.88903 19.078 7.90703 17.588 6.41603Z" fill="#40C351"/>
<path fill-rule="evenodd" clip-rule="evenodd" d="M9.634 8.02251C9.4565 7.6275 9.2695 7.61951 9.1 7.61251C8.9615 7.60651 8.8035 7.607 8.6455 7.607C8.4875 7.607 8.23049 7.6665 8.01299 7.904C7.79549 8.1415 7.1825 8.71501 7.1825 9.88201C7.1825 11.049 8.0325 12.177 8.151 12.335C8.2695 12.493 9.792 14.9645 12.203 15.9155C14.2065 16.7055 14.6145 16.5485 15.0495 16.509C15.4845 16.4695 16.453 15.9355 16.6505 15.3815C16.848 14.8275 16.848 14.353 16.789 14.254C16.7295 14.155 16.5715 14.096 16.3345 13.977C16.0975 13.858 14.931 13.2845 14.7135 13.2055C14.496 13.1265 14.338 13.087 14.1795 13.3245C14.0215 13.5615 13.567 14.096 13.4285 14.254C13.29 14.4125 13.1515 14.4325 12.9145 14.3135C12.6775 14.1945 11.9135 13.9445 11.007 13.1365C10.302 12.508 9.826 11.7315 9.6875 11.494C9.549 11.257 9.6725 11.1285 9.7915 11.01C9.898 10.9035 10.0285 10.733 10.1475 10.5945C10.266 10.456 10.3055 10.357 10.3845 10.199C10.4635 10.0405 10.424 9.902 10.3645 9.7835C10.306 9.66451 9.845 8.49151 9.634 8.02251Z" fill="white"/>
</svg>
